<svg width="52" height="56" viewBox="0 0 52 56" fill="none" xmlns="http://www.w3.org/2000/svg">
<path d="M25.6602 7.16494V1" stroke="#1C1F35" stroke-width="2" stroke-linecap="round" stroke-linejoin="round"/>
<path d="M50.3195 35.9342C46.5692 49.0347 29.2046 53.6071 26.1221 54.3263C25.8187 54.4035 25.5008 54.4035 25.1974 54.3263C22.1149 53.6071 4.75034 49.0347 1 35.9342V27.1492C0.999964 26.7165 1.13652 26.2948 1.39021 25.9443C1.64389 25.5937 2.00176 25.3322 2.4128 25.197L25.0176 17.6449C25.436 17.5161 25.8835 17.5161 26.3019 17.6449L48.9067 25.197C49.3178 25.3322 49.6756 25.5937 49.9293 25.9443C50.183 26.2948 50.3195 26.7165 50.3195 27.1492V35.9342Z" stroke="#1C1F35" stroke-width="2" stroke-linecap="round" stroke-linejoin="round"/>
<path d="M26.1291 47.6652C23.6902 47.1036 9.9516 43.5341 6.98438 33.3066" stroke="#1C1F35" stroke-width="2" stroke-linecap="round" stroke-linejoin="round"/>
<path d="M6.98438 9.98291V23.1362L25.5308 16.5553L44.0772 23.1362V9.98291C44.0772 8.32606 42.734 6.98291 41.0772 6.98291H9.98437C8.32752 6.98291 6.98438 8.32606 6.98438 9.98291Z" fill="#FFD550" stroke="#1C1F35" stroke-width="2"/>
<path d="M25.6602 37.99V17.543" stroke="#1C1F35" stroke-width="2" stroke-linecap="round" stroke-linejoin="round"/>
<path d="M30.9141 36.8963L30.9141 28.5205" stroke="#1C1F35" stroke-width="2" stroke-linecap="round" stroke-linejoin="round"/>
<path d="M11.7695 17.7518V11.769" stroke="#1C1F35" stroke-width="2" stroke-linecap="round" stroke-linejoin="round"/>
<path d="M48.8633 20.1449V9.37598" stroke="#1C1F35" stroke-width="2" stroke-linecap="round" stroke-linejoin="round"/>
</svg>
