<svg width="21" height="20" viewBox="0 0 21 20" fill="none" xmlns="http://www.w3.org/2000/svg">
<path d="M14.4939 2.03236C15.591 2.03551 16.6422 2.45628 17.4179 3.20276C18.1937 3.94925 18.6309 4.9608 18.6342 6.01648V13.9839C18.6309 15.0396 18.1937 16.0511 17.4179 16.7976C16.6422 17.5441 15.591 17.9649 14.4939 17.968H6.21415C5.11707 17.9649 4.06587 17.5441 3.29012 16.7976C2.51437 16.0511 2.07711 15.0396 2.07383 13.9839V6.01648C2.07711 4.9608 2.51437 3.94925 3.29012 3.20276C4.06587 2.45628 5.11707 2.03551 6.21415 2.03236H14.4939ZM14.4939 0.438965H6.21415C3.02618 0.438965 0.417969 2.94878 0.417969 6.01648V13.9839C0.417969 17.0516 3.02618 19.5614 6.21415 19.5614H14.4939C17.6819 19.5614 20.2901 17.0516 20.2901 13.9839V6.01648C20.2901 2.94878 17.6819 0.438965 14.4939 0.438965Z" fill="white"/>
<path d="M15.7366 6.01677C15.491 6.01677 15.2509 5.94668 15.0466 5.81535C14.8424 5.68403 14.6832 5.49737 14.5892 5.27898C14.4952 5.0606 14.4706 4.82029 14.5185 4.58846C14.5664 4.35662 14.6847 4.14366 14.8584 3.97652C15.0321 3.80937 15.2534 3.69555 15.4943 3.64943C15.7352 3.60331 15.985 3.62698 16.2119 3.71744C16.4389 3.8079 16.6328 3.96108 16.7693 4.15763C16.9058 4.35417 16.9786 4.58524 16.9786 4.82162C16.979 4.97866 16.9471 5.13423 16.8848 5.27938C16.8225 5.42454 16.731 5.55642 16.6156 5.66747C16.5002 5.77852 16.3632 5.86654 16.2123 5.92648C16.0615 5.98642 15.8998 6.01711 15.7366 6.01677ZM10.3547 6.81325C11.0098 6.81325 11.6502 7.00018 12.1949 7.3504C12.7396 7.70061 13.1641 8.19839 13.4148 8.78077C13.6655 9.36316 13.7311 10.004 13.6033 10.6223C13.4755 11.2405 13.16 11.8084 12.6968 12.2542C12.2336 12.6999 11.6434 13.0035 11.0009 13.1264C10.3584 13.2494 9.69246 13.1863 9.08724 12.9451C8.48202 12.7038 7.96473 12.2953 7.60078 11.7712C7.23684 11.2471 7.04258 10.6308 7.04258 10.0005C7.04352 9.15544 7.39278 8.34529 8.01373 7.74777C8.63468 7.15024 9.47659 6.81416 10.3547 6.81325ZM10.3547 5.21986C9.37216 5.21986 8.41165 5.50024 7.59466 6.02554C6.77767 6.55084 6.14091 7.29747 5.76489 8.17101C5.38887 9.04455 5.29049 10.0058 5.48218 10.9331C5.67387 11.8605 6.14703 12.7123 6.84182 13.3809C7.53661 14.0494 8.42183 14.5048 9.38553 14.6892C10.3492 14.8737 11.3481 14.779 12.2559 14.4172C13.1637 14.0553 13.9396 13.4426 14.4855 12.6564C15.0314 11.8703 15.3228 10.946 15.3228 10.0005C15.3228 8.73257 14.7994 7.51661 13.8677 6.62007C12.936 5.72353 11.6723 5.21986 10.3547 5.21986Z" fill="white"/>
</svg>
