<svg width="176" height="36" viewBox="0 0 176 36" fill="none" xmlns="http://www.w3.org/2000/svg">
<path d="M36.99 28C36.81 28 36.66 27.94 36.54 27.82C36.42 27.68 36.36 27.53 36.36 27.37C36.36 27.27 36.37 27.18 36.39 27.1L43.53 7.81C43.59 7.59 43.71 7.4 43.89 7.24C44.07 7.08 44.32 7 44.64 7H48.48C48.8 7 49.05 7.08 49.23 7.24C49.41 7.4 49.53 7.59 49.59 7.81L56.73 27.1C56.75 27.18 56.76 27.27 56.76 27.37C56.76 27.53 56.7 27.68 56.58 27.82C56.46 27.94 56.31 28 56.13 28H53.01C52.71 28 52.49 27.93 52.35 27.79C52.21 27.65 52.12 27.52 52.08 27.4L50.79 24.04H42.33L41.04 27.4C41 27.52 40.91 27.65 40.77 27.79C40.63 27.93 40.41 28 40.11 28H36.99ZM43.44 20.17H49.65L46.56 11.53L43.44 20.17ZM60.093 28C59.873 28 59.693 27.93 59.553 27.79C59.413 27.65 59.343 27.47 59.343 27.25V7.75C59.343 7.53 59.413 7.35 59.553 7.21C59.693 7.07 59.873 7 60.093 7H63.423C63.643 7 63.823 7.07 63.963 7.21C64.103 7.35 64.173 7.53 64.173 7.75V23.98H73.473C73.693 23.98 73.873 24.05 74.013 24.19C74.153 24.33 74.223 24.51 74.223 24.73V27.25C74.223 27.47 74.153 27.65 74.013 27.79C73.873 27.93 73.693 28 73.473 28H60.093ZM83.614 28.3C81.954 28.3 80.564 28.03 79.444 27.49C78.324 26.93 77.464 26.14 76.864 25.12C76.284 24.1 75.964 22.91 75.904 21.55C75.884 21.15 75.874 20.7 75.874 20.2C75.874 19.68 75.884 19.23 75.904 18.85C75.964 17.47 76.304 16.28 76.924 15.28C77.544 14.26 78.414 13.48 79.534 12.94C80.654 12.38 82.014 12.1 83.614 12.1C85.194 12.1 86.544 12.38 87.664 12.94C88.784 13.48 89.654 14.26 90.274 15.28C90.894 16.28 91.234 17.47 91.294 18.85C91.334 19.23 91.354 19.68 91.354 20.2C91.354 20.7 91.334 21.15 91.294 21.55C91.234 22.91 90.904 24.1 90.304 25.12C89.724 26.14 88.874 26.93 87.754 27.49C86.634 28.03 85.254 28.3 83.614 28.3ZM83.614 25C84.594 25 85.334 24.7 85.834 24.1C86.334 23.48 86.604 22.58 86.644 21.4C86.664 21.1 86.674 20.7 86.674 20.2C86.674 19.7 86.664 19.3 86.644 19C86.604 17.84 86.334 16.95 85.834 16.33C85.334 15.71 84.594 15.4 83.614 15.4C82.634 15.4 81.884 15.71 81.364 16.33C80.864 16.95 80.594 17.84 80.554 19C80.534 19.3 80.524 19.7 80.524 20.2C80.524 20.7 80.534 21.1 80.554 21.4C80.594 22.58 80.864 23.48 81.364 24.1C81.884 24.7 82.634 25 83.614 25ZM101.812 34.6C100.332 34.6 99.1016 34.4 98.1216 34C97.1416 33.62 96.3616 33.15 95.7816 32.59C95.2216 32.05 94.8216 31.51 94.5816 30.97C94.3416 30.43 94.2116 30.01 94.1916 29.71C94.1716 29.49 94.2416 29.31 94.4016 29.17C94.5616 29.03 94.7416 28.96 94.9416 28.96H98.1516C98.3316 28.96 98.4816 29 98.6016 29.08C98.7416 29.18 98.8516 29.34 98.9316 29.56C99.0316 29.8 99.1716 30.05 99.3516 30.31C99.5316 30.59 99.8016 30.82 100.162 31C100.542 31.18 101.042 31.27 101.662 31.27C102.362 31.27 102.942 31.17 103.402 30.97C103.862 30.77 104.202 30.43 104.422 29.95C104.662 29.47 104.782 28.82 104.782 28V25.99C104.302 26.51 103.692 26.94 102.952 27.28C102.232 27.62 101.342 27.79 100.282 27.79C99.2416 27.79 98.3216 27.63 97.5216 27.31C96.7416 26.97 96.0916 26.5 95.5716 25.9C95.0516 25.28 94.6516 24.54 94.3716 23.68C94.0916 22.82 93.9316 21.85 93.8916 20.77C93.8716 20.23 93.8716 19.7 93.8916 19.18C93.9316 18.14 94.0916 17.19 94.3716 16.33C94.6516 15.47 95.0516 14.73 95.5716 14.11C96.0916 13.47 96.7416 12.98 97.5216 12.64C98.3216 12.28 99.2416 12.1 100.282 12.1C101.382 12.1 102.322 12.31 103.102 12.73C103.882 13.15 104.522 13.67 105.022 14.29V13.15C105.022 12.95 105.092 12.78 105.232 12.64C105.372 12.48 105.542 12.4 105.742 12.4H108.682C108.882 12.4 109.052 12.48 109.192 12.64C109.352 12.78 109.432 12.95 109.432 13.15L109.462 27.58C109.462 29.08 109.172 30.35 108.592 31.39C108.012 32.43 107.152 33.22 106.012 33.76C104.892 34.32 103.492 34.6 101.812 34.6ZM101.662 24.28C102.382 24.28 102.962 24.12 103.402 23.8C103.862 23.46 104.202 23.04 104.422 22.54C104.642 22.02 104.762 21.48 104.782 20.92C104.802 20.7 104.812 20.39 104.812 19.99C104.812 19.57 104.802 19.25 104.782 19.03C104.762 18.47 104.642 17.94 104.422 17.44C104.202 16.92 103.862 16.5 103.402 16.18C102.962 15.86 102.382 15.7 101.662 15.7C100.902 15.7 100.302 15.87 99.8616 16.21C99.4216 16.53 99.1016 16.96 98.9016 17.5C98.7016 18.04 98.5816 18.63 98.5416 19.27C98.5216 19.75 98.5216 20.22 98.5416 20.68C98.5816 21.34 98.7016 21.94 98.9016 22.48C99.1016 23.02 99.4216 23.46 99.8616 23.8C100.302 24.12 100.902 24.28 101.662 24.28ZM113.962 28C113.762 28 113.592 27.93 113.452 27.79C113.312 27.65 113.242 27.47 113.242 27.25V13.15C113.242 12.93 113.312 12.75 113.452 12.61C113.592 12.47 113.762 12.4 113.962 12.4H116.962C117.182 12.4 117.362 12.47 117.502 12.61C117.642 12.75 117.712 12.93 117.712 13.15V27.25C117.712 27.47 117.642 27.65 117.502 27.79C117.362 27.93 117.182 28 116.962 28H113.962ZM113.872 10C113.672 10 113.502 9.93 113.362 9.79C113.222 9.65 113.152 9.47 113.152 9.25V6.85C113.152 6.63 113.222 6.45 113.362 6.31C113.502 6.15 113.672 6.07 113.872 6.07H117.022C117.242 6.07 117.422 6.15 117.562 6.31C117.722 6.45 117.802 6.63 117.802 6.85V9.25C117.802 9.47 117.722 9.65 117.562 9.79C117.422 9.93 117.242 10 117.022 10H113.872ZM128.093 28.3C126.853 28.3 125.783 28.16 124.883 27.88C124.003 27.58 123.283 27.22 122.723 26.8C122.183 26.38 121.773 25.96 121.493 25.54C121.233 25.1 121.093 24.73 121.073 24.43C121.053 24.21 121.123 24.03 121.283 23.89C121.443 23.75 121.603 23.68 121.763 23.68H124.673C124.733 23.68 124.793 23.69 124.853 23.71C124.913 23.73 124.973 23.78 125.033 23.86C125.293 24.04 125.563 24.25 125.843 24.49C126.123 24.71 126.443 24.9 126.803 25.06C127.183 25.22 127.653 25.3 128.213 25.3C128.873 25.3 129.433 25.17 129.893 24.91C130.353 24.63 130.583 24.24 130.583 23.74C130.583 23.38 130.473 23.08 130.253 22.84C130.053 22.6 129.663 22.38 129.083 22.18C128.503 21.98 127.643 21.76 126.503 21.52C125.423 21.28 124.503 20.96 123.743 20.56C122.983 20.16 122.413 19.66 122.033 19.06C121.653 18.44 121.463 17.7 121.463 16.84C121.463 16.06 121.703 15.31 122.183 14.59C122.683 13.87 123.413 13.28 124.373 12.82C125.333 12.34 126.533 12.1 127.973 12.1C129.073 12.1 130.033 12.24 130.853 12.52C131.693 12.78 132.393 13.12 132.953 13.54C133.513 13.94 133.933 14.36 134.213 14.8C134.513 15.22 134.673 15.59 134.693 15.91C134.713 16.11 134.653 16.28 134.513 16.42C134.373 16.56 134.213 16.63 134.033 16.63H131.363C131.263 16.63 131.173 16.62 131.093 16.6C131.013 16.56 130.943 16.51 130.883 16.45C130.643 16.29 130.393 16.11 130.133 15.91C129.893 15.69 129.603 15.5 129.263 15.34C128.923 15.18 128.483 15.1 127.943 15.1C127.283 15.1 126.773 15.25 126.413 15.55C126.073 15.83 125.903 16.19 125.903 16.63C125.903 16.91 125.993 17.17 126.173 17.41C126.353 17.65 126.723 17.87 127.283 18.07C127.843 18.27 128.693 18.48 129.833 18.7C131.193 18.94 132.273 19.3 133.073 19.78C133.873 20.26 134.443 20.82 134.783 21.46C135.143 22.08 135.323 22.75 135.323 23.47C135.323 24.41 135.043 25.25 134.483 25.99C133.923 26.71 133.103 27.28 132.023 27.7C130.963 28.1 129.653 28.3 128.093 28.3ZM145.644 28C144.404 28 143.344 27.8 142.464 27.4C141.584 26.98 140.914 26.34 140.454 25.48C140.014 24.62 139.794 23.54 139.794 22.24V15.94H137.454C137.234 15.94 137.054 15.87 136.914 15.73C136.774 15.59 136.704 15.41 136.704 15.19V13.15C136.704 12.93 136.774 12.75 136.914 12.61C137.054 12.47 137.234 12.4 137.454 12.4H139.794V7.45C139.794 7.23 139.864 7.05 140.004 6.91C140.164 6.77 140.344 6.7 140.544 6.7H143.484C143.704 6.7 143.884 6.77 144.024 6.91C144.164 7.05 144.234 7.23 144.234 7.45V12.4H147.984C148.184 12.4 148.354 12.47 148.494 12.61C148.634 12.75 148.704 12.93 148.704 13.15V15.19C148.704 15.41 148.634 15.59 148.494 15.73C148.354 15.87 148.184 15.94 147.984 15.94H144.234V21.88C144.234 22.64 144.364 23.24 144.624 23.68C144.904 24.1 145.384 24.31 146.064 24.31H148.254C148.454 24.31 148.624 24.38 148.764 24.52C148.904 24.66 148.974 24.83 148.974 25.03V27.25C148.974 27.47 148.904 27.65 148.764 27.79C148.624 27.93 148.454 28 148.254 28H145.644ZM152.311 28C152.111 28 151.941 27.93 151.801 27.79C151.661 27.65 151.591 27.47 151.591 27.25V13.15C151.591 12.93 151.661 12.75 151.801 12.61C151.941 12.47 152.111 12.4 152.311 12.4H155.311C155.531 12.4 155.711 12.47 155.851 12.61C155.991 12.75 156.061 12.93 156.061 13.15V27.25C156.061 27.47 155.991 27.65 155.851 27.79C155.711 27.93 155.531 28 155.311 28H152.311ZM152.221 10C152.021 10 151.851 9.93 151.711 9.79C151.571 9.65 151.501 9.47 151.501 9.25V6.85C151.501 6.63 151.571 6.45 151.711 6.31C151.851 6.15 152.021 6.07 152.221 6.07H155.371C155.591 6.07 155.771 6.15 155.911 6.31C156.071 6.45 156.151 6.63 156.151 6.85V9.25C156.151 9.47 156.071 9.65 155.911 9.79C155.771 9.93 155.591 10 155.371 10H152.221ZM166.871 28.3C165.411 28.3 164.121 28.03 163.001 27.49C161.901 26.95 161.031 26.17 160.391 25.15C159.751 24.11 159.401 22.87 159.341 21.43C159.321 21.11 159.311 20.71 159.311 20.23C159.311 19.73 159.321 19.32 159.341 19C159.401 17.54 159.741 16.3 160.361 15.28C161.001 14.24 161.881 13.45 163.001 12.91C164.121 12.37 165.411 12.1 166.871 12.1C168.211 12.1 169.351 12.29 170.291 12.67C171.231 13.03 172.001 13.49 172.601 14.05C173.201 14.61 173.641 15.2 173.921 15.82C174.221 16.42 174.381 16.95 174.401 17.41C174.421 17.61 174.351 17.79 174.191 17.95C174.051 18.09 173.881 18.16 173.681 18.16H170.471C170.271 18.16 170.111 18.11 169.991 18.01C169.891 17.89 169.791 17.73 169.691 17.53C169.411 16.83 169.051 16.33 168.611 16.03C168.171 15.73 167.621 15.58 166.961 15.58C166.061 15.58 165.351 15.87 164.831 16.45C164.311 17.03 164.031 17.93 163.991 19.15C163.971 19.93 163.971 20.64 163.991 21.28C164.051 22.52 164.331 23.42 164.831 23.98C165.351 24.54 166.061 24.82 166.961 24.82C167.661 24.82 168.221 24.67 168.641 24.37C169.061 24.07 169.411 23.57 169.691 22.87C169.771 22.67 169.871 22.52 169.991 22.42C170.111 22.3 170.271 22.24 170.471 22.24H173.681C173.881 22.24 174.051 22.32 174.191 22.48C174.351 22.62 174.421 22.79 174.401 22.99C174.381 23.33 174.281 23.73 174.101 24.19C173.941 24.65 173.671 25.12 173.291 25.6C172.931 26.08 172.461 26.53 171.881 26.95C171.301 27.35 170.591 27.68 169.751 27.94C168.931 28.18 167.971 28.3 166.871 28.3Z" fill="white"/>
<rect y="4.89111" width="9.78261" height="9.78261" transform="rotate(-30 0 4.89111)" fill="#FFB82B"/>
<rect x="4.12891" y="15" width="10" height="10" fill="#FFB82B"/>
<rect x="18.1289" y="2" width="10" height="10" fill="#FFB82B"/>
<rect x="18.1289" y="15" width="10" height="10" fill="#FFB82B"/>
</svg>
