<svg width="22" height="18" viewBox="0 0 22 18" fill="none" xmlns="http://www.w3.org/2000/svg">
<path d="M20.0535 0.466048L1.03683 7.55355C-0.246507 8.00355 -0.246507 8.79105 0.803493 9.01605L5.58683 10.4785L7.45349 15.8785C7.68683 16.441 7.57016 16.666 8.15349 16.666C8.62016 16.666 8.85349 16.441 9.08683 16.216C9.20349 16.1035 10.2535 15.091 11.4202 13.966L16.3202 17.4535C17.2535 17.9035 17.8368 17.6785 18.0702 16.666L21.3368 1.92855C21.6868 0.691047 20.8702 0.0160477 20.0535 0.466048ZM17.6035 3.84105L8.50349 11.8285L8.15349 15.541L6.28683 10.141L17.0202 3.61605C17.4868 3.27855 17.9535 3.50355 17.6035 3.84105Z" fill="white"/>
</svg>
